<svg xmlns="http://www.w3.org/2000/svg" width="116.693" height="104.01" viewBox="0 0 116.693 104.01">
  <defs>
    <style>
      .cls-1 {
        fill: none;
        stroke: #fff;
        stroke-miterlimit: 10;
        stroke-width: 5px;
      }
    </style>
  </defs>
  <g id="Customer_Service_Icon_" data-name="Customer Service Icon " transform="translate(-64.543 -89.149)">
    <path id="Path_269" data-name="Path 269" class="cls-1" d="M67.043,147.706H178.736v-8.693a8.308,8.308,0,0,0-5.455-7.8L137.2,118.027c-9.679,11.035-19.692,10.377-29.986,0L72.413,131.176a8.307,8.307,0,0,0-5.37,7.771Z" transform="translate(0 42.953)"/>
    <rect id="Rectangle_736" data-name="Rectangle 736" class="cls-1" width="0.042" height="21.534" transform="translate(143.391 112.124)"/>
    <line id="Line_13" data-name="Line 13" class="cls-1" y1="14.017" transform="translate(107.259 147.01)"/>
    <line id="Line_14" data-name="Line 14" class="cls-1" y1="12.439" transform="translate(137.224 148.547)"/>
    <line id="Line_15" data-name="Line 15" class="cls-1" y1="9.455" transform="translate(91.077 181.203)"/>
    <line id="Line_16" data-name="Line 16" class="cls-1" y1="9.455" transform="translate(154.966 181.203)"/>
    <rect id="Rectangle_737" data-name="Rectangle 737" class="cls-1" width="0.042" height="21.534" transform="translate(143.391 112.124)"/>
    <path id="Path_270" data-name="Path 270" class="cls-1" d="M125.018,126.649h.042v.208a19.992,19.992,0,0,1-.851,5.814,20.471,20.471,0,0,1-40.1-5.814V105.115a20.475,20.475,0,0,1,40.95,0h-.042Z" transform="translate(18.373 7.009)"/>
    <path id="Path_271" data-name="Path 271" class="cls-1" d="M85.331,94.5v12.19h-4.5a3.677,3.677,0,0,1-3.679-3.679V98.179A3.677,3.677,0,0,1,80.828,94.5Z" transform="translate(17.151 22.296)"/>
    <path id="Path_272" data-name="Path 272" class="cls-1" d="M111.987,98.179v4.831a3.685,3.685,0,0,1-3.679,3.679h-4.479V94.5h4.479a3.68,3.68,0,0,1,3.644,3.209A3.049,3.049,0,0,1,111.987,98.179Z" transform="translate(39.603 22.296)"/>
    <rect id="Rectangle_738" data-name="Rectangle 738" class="cls-1" width="0.042" height="9.345" transform="translate(143.391 112.124)"/>
    <path id="Path_274" data-name="Path 274" class="cls-1" d="M84.109,104.978H94.18A14.845,14.845,0,0,0,109.028,90.13a14.844,14.844,0,0,0,14.848,14.848h1.142" transform="translate(18.373 12.919)"/>
  </g>
</svg>
